# xmcd CD database file
#
# Track frame offsets:
#	150
#	18832
#	31027
#	43801
#	63458
#	76500
#	91276
#	107789
#	121912
#	131698
#	149633
#	166214
#	181131
#	199883
#	211941
#	229958
#	247140
#	271968
#	285093
#	299018
#
# Disc length: 4120 seconds
#
# Revision: 1
# Processed by: cddbd v1.5.2PL0 Copyright (c) Steve Scherf et al.
# Submitted via: CDex 1.70beta2
#
DISCID=1f101614
DTITLE=Various Artist - I love Jazz [CD4 Gypsy Jazz)
DYEAR=1900
DGENRE=Jazz
TTITLE0=Ninine Garcia - My dream of love
TTITLE1=Bireli Lagrene - Blues Clair
TTITLE2=The Rosenberg Trio - My blue heaven
TTITLE3=Tchavolo Schmitt - It had to be you
TTITLE4=Frederic Belinsky - Bossa Dorado
TTITLE5=David Reinhardt Trio - Micro
TTITLE6=Daniel Givone - Petite reine
TTITLE7=Daniel Colin - Jacqueline
TTITLE8=Patrick Saussois and Alma Sinti - Just for one Babik
TTITLE9=Hot Club USA - Stompin's At Decca
TTITLE10=Fapy Lafertin Quintet - Fleur de Lavande
TTITLE11=Didier Lockwood - I got Rhythm
TTITLE12=Romane and Stochelo Rosenberg - La promenade
TTITLE13=Am Katenes - I'll close my eyes
TTITLE14=Sylvain Luc and Bireli Lagrene - Isn't she lovely
TTITLE15=Trio Givone - Angera
TTITLE16=Rodolphe Raffalli - Chanson pour l'Auvergnat
TTITLE17=Francis Alfred Moerman - Nuits de Nador
TTITLE18=Romane - Danube
TTITLE19=Django Reinhardt - Les yeux noirs
EXTD=
EXTT0=
EXTT1=
EXTT2=
EXTT3=
EXTT4=
EXTT5=
EXTT6=
EXTT7=
EXTT8=
EXTT9=
EXTT10=
EXTT11=
EXTT12=
EXTT13=
EXTT14=
EXTT15=
EXTT16=
EXTT17=
EXTT18=
EXTT19=
PLAYORDER=
